# xmcd
#
# Track frame offsets:
# 150
# 21600
# 31713
# 40453
# 46203
# 62675
# 80755
# 91053
# 94833
# 98073
# 101135
# 103625
# 120238
# 133700
# 147485
# 158938
# 174620
# 184513
# 196675
# 203713
# 206918
# 213598
#
# Disc length: 3141 seconds
#
#
# Revision: 4
# Processed by: cddbd v1.5.2PL0 Copyright (c) Steve Scherf et al.
# Submitted via: FreeRIP 2.945 
#
DISCID=370c4316
DTITLE=Musical - Les Misérables - deel II
DYEAR=1991
DGENRE=Musical
TTITLE0=In mijn hart
TTITLE1=M'n hart zingt het uit
TTITLE2=De poging tot inbraak
TTITLE3=Schimmen uit 't verleden
TTITLE4=Nog  één dag
TTITLE5=Heel alleen
TTITLE6=In naam van de vrijheid
TTITLE7=Javert op de barrikade
TTITLE8=Wij "ukkies"
TTITLE9=Jean Valjean op de barrikade
TTITLE10=De aanval
TTITLE11=Regen maakt de velden groen
TTITLE12=Drink met mij
TTITLE13=Breng hem thuis
TTITLE14=Hond eet hond
TTITLE15=Javert's zelfmoord
TTITLE16=Jong studentje
TTITLE17=Lege stoelen, lege tafels
TTITLE18=Elke dag
TTITLE19=De bruiloft
TTITLE20=Baas van 't hele feest
TTITLE21=Finale
EXTD=
EXTT0=
EXTT1=
EXTT2=
EXTT3=
EXTT4=
EXTT5=
EXTT6=
EXTT7=
EXTT8=
EXTT9=
EXTT10=
EXTT11=
EXTT12=
EXTT13=
EXTT14=
EXTT15=
EXTT16=
EXTT17=
EXTT18=
EXTT19=
EXTT20=
EXTT21=
PLAYORDER=
